<?xml version="1.0" encoding="utf-8"?>
<!-- Generator: Adobe Illustrator 19.0.0, SVG Export Plug-In . SVG Version: 6.00 Build 0)  -->
<svg version="1.1" xmlns="http://www.w3.org/2000/svg" xmlns:xlink="http://www.w3.org/1999/xlink" x="0px" y="0px"
	 viewBox="0 0 676.1 676.1" style="enable-background:new 0 0 676.1 676.1;" xml:space="preserve">
<style type="text/css">
	.st0{fill:#4F5259;}
	.st1{opacity:0.25;fill:#262626;}
	.st2{fill:#262626;}
	.st3{fill:#FFFFFF;stroke:#333333;stroke-width:19;stroke-miterlimit:10;}
	.st4{fill:#FFFFFF;}
	.st5{fill:none;stroke:#333333;stroke-width:19;stroke-miterlimit:10;}
	.st6{opacity:0.25;fill:#333333;}
</style>
<g id="Capa_3">
	<circle id="XMLID_118_" class="st0" cx="338.1" cy="338.1" r="338.1"/>
</g>
<g id="Capa_1">
</g>
<g id="Capa_2">
	<g id="Capa_5">
		<path id="XMLID_207_" class="st1" d="M558.3,304.7l-78,28.2c-16,0.1-30.4,1.2-43.7,3.4c-4.4-4.6-9-9.3-13.5-13.9l2.8-2.8
			c21.7-20.3,32.9-45.6,33.9-75.1c1-29.5,0.5-59.9-32.6-108.3c-16.9-24.7-44.5-7.7-74-8.5v0c-30.2-0.8-58.7,10.4-80.4,31.4
			c-21.6,21.1-33.6,49.3-33.6,79.5c0,29.4,11.8,57.2,34.3,80.2c0.8,0.8,1.7,1.7,2.7,2.7L142.7,454c-14.2,14.1-22.3,33.7-22.3,53.7
			l-16.3,3.1c6.7,27.8,39.5,67.1,68.2,67.1s51.9-23.3,51.9-52v-6.3l79-78.2c-2.6,9.3-5,20.2-12.4,26.4c-11.9,10,20.4,60.8,42.2,82
			c20.8,20.1,48.2,31.2,77.1,31.2c0.9,0,1.8,0,2.7,0c0.4,0,0.7,0,1.1,0c27.6-0.9,53.8-12.1,73.7-31.5c19.8-19.3,31.7-45.1,33.4-72.6
			c0.9-15-1.3-28.2-5.3-39.9l23.9,0c28.7-0.2,51.8-23.7,51.7-52.3C590.9,356,576.1,321.7,558.3,304.7z M410.9,460.8
			c5.1,6.6,6,9,6.1,9.6c-0.3,3.4-3.4,6.5-6.7,6.6l0.3,9.5l-0.3-9.5c-2,0.1-3.6-0.5-5-1.9c-1-1-2.2-2.6-2.2-5.1c0-2.5,1-3.9,1.5-4.5
			c1.4-1.5,3.2-3.3,5.6-5.3C410.4,460.3,410.7,460.5,410.9,460.8z M350.8,222.2l-0.3,9.5c2.1,0.1,3.8,1.5,4.6,2.4
			c1.4,1.5,2.2,3.3,2.1,4.9c0,0.7-0.1,2.7-2.3,4.7c-0.5,0.5-1,1-1.6,1.5l-3.3,3.2c-0.7-0.8-1.4-1.5-2.1-2.1
			c-3.8-3.9-4.8-6.6-4.8-7.6c0-2.4,1.2-4.1,2.1-5c1-0.9,2.6-2,5.1-2l0.3-11.3L350.8,222.2z M351,212.7
			C351,212.7,351,212.7,351,212.7l0.9-32.7L351,212.7z"/>
		<path id="XMLID_202_" class="st2" d="M521.2,304.7l-58.7,0c-16,0.1-30.4,1.2-43.7,3.4c-4.4-4.6-9-9.3-13.5-13.9l2.8-2.8
			c21.7-20.3,34.3-47.7,35.2-77.2c1-29.5-9.8-57.8-30.4-79.6c-20.5-21.8-48.1-34.3-77.6-35v0c-30.2-0.8-58.7,10.4-80.4,31.4
			c-21.6,21.1-33.6,49.3-33.6,79.5c0,29.4,11.8,57.2,34.3,80.2c0.8,0.8,1.7,1.7,2.7,2.7L124.6,425.9c-14.2,14.1-22.5,33.7-22.5,53.7
			v18.1c0,28.7,23.3,52,52,52s52-23.3,52-52v-6.3l79.1-78.2c-2.6,9.3-3.9,18.8-3.9,28.4c0,30.4,12,58.8,33.8,79.9
			c20.8,20.1,48.2,31.2,77.1,31.2c0.9,0,1.8,0,2.7,0c0.4,0,0.7,0,1.1,0c27.6-0.9,53.8-12.1,73.7-31.5c19.8-19.3,31.7-45.1,33.4-72.6
			c0.9-15-1.3-28.2-5.3-39.9l23.9,0c28.7-0.2,51.8-23.7,51.7-52.3C573,327.9,549.7,304.7,521.2,304.7z M393,432.6
			c5.1,6.6,6,9,6.1,9.6c-0.3,3.4-3.4,6.5-6.7,6.6l0.3,9.5l-0.3-9.5c-2,0.1-3.6-0.5-5-1.9c-1-1-2.2-2.6-2.2-5.1c0-2.5,1-3.9,1.5-4.5
			c1.4-1.5,3.2-3.3,5.6-5.3C392.6,432.2,392.8,432.4,393,432.6z M332.9,194.1l-0.3,9.5c2.1,0.1,3.8,1.5,4.6,2.4
			c1.4,1.5,2.2,3.3,2.1,4.9c0,0.7-0.1,2.7-2.3,4.7c-0.5,0.5-1,1-1.6,1.5l-3.3,3.2c-0.7-0.8-1.4-1.5-2.1-2.1
			c-3.8-3.9-4.8-6.6-4.8-7.6c0-2.4,1.2-4.1,2.1-5c1-0.9,2.6-2,5.1-2l0.3-11.3L332.9,194.1z M333.2,184.6
			C333.2,184.6,333.2,184.6,333.2,184.6l0.9-32.7L333.2,184.6z"/>
	</g>
	<g id="XMLID_27_">
		<path id="XMLID_23_" class="st3" d="M335.2,89.1c26.9,0.7,52.1,12.1,70.9,32.1c18.8,20,28.7,45.8,27.8,72.8
			c-0.9,27.1-12.4,52.2-32.3,70.7L196.8,467.5v10.3c0,23.5-19,42.5-42.5,42.5s-42.5-19-42.5-42.5v-18.1c0-17.5,7.1-34.7,19.6-47
			l210.8-208.9c0.4-0.4,0.8-0.8,1.3-1.2c2.4-2.1,5.2-5.9,5.4-11.4c0.1-4.1-1.6-8.4-4.7-11.7c-1.8-1.9-5.7-5.2-11.3-5.4"/>
	</g>
	<path id="XMLID_39_" class="st4" d="M392.8,438.3c8.2-0.3,15.3-7.3,15.8-15.6c0.2-2.5-0.4-5.9-8.3-16.1
		c-21.7-24.8-75.2-79.2-110.6-115.3c-9.6-9.7-20.9-20.8-27.1-27.2c-20.7-21.2-31.6-46.7-31.6-73.6c0-27.6,10.9-53.4,30.7-72.7
		c19.8-19.2,45.9-29.4,73.5-28.7l-2.3,85c-6.1-0.2-10.1,2.9-12,4.7c-1.9,1.8-5,5.8-5,11.8c0,5.4,4.1,10.7,7.5,14.2
		c6.1,6.3,17.4,17.3,26.9,27c36,36.6,90.1,91.7,113.7,118.5c0.6,0.6,1.1,1.3,1.7,1.9c0.2,0.2,0.4,0.4,0.5,0.7
		c13.8,17.4,29.3,41.7,27.2,75.2c-1.6,25.1-12.4,48.7-30.5,66.4c-18.2,17.8-42.1,28-67.3,28.8c-0.5,0-1,0-1.4,0L392.8,438.3z"/>
	<g id="XMLID_26_">
		<g id="XMLID_29_">
			<path id="XMLID_40_" class="st5" d="M392.8,438.3c8.2-0.3,15.3-7.3,15.8-15.6c0.2-2.5-0.4-5.9-8.3-16.1
				c-21.7-24.8-75.2-79.2-110.6-115.3c-9.6-9.7-20.9-20.8-27.1-27.2c-20.7-21.2-31.6-46.7-31.6-73.6c0-27.6,10.9-53.4,30.7-72.7
				c19.8-19.2,45.9-29.4,73.5-28.7"/>
			<path id="XMLID_38_" class="st5" d="M332.9,174.1c-6.1-0.2-10.1,2.9-12,4.7c-1.9,1.8-5,5.8-5,11.8c0,5.4,4.1,10.7,7.5,14.2
				c6.1,6.3,17.4,17.3,26.9,27c36,36.6,90.1,91.7,113.7,118.5c0.6,0.6,1.1,1.3,1.7,1.9c0.2,0.2,0.4,0.4,0.5,0.7
				c13.8,17.4,29.3,41.7,27.2,75.2c-1.6,25.1-12.4,48.7-30.5,66.4c-18.2,17.8-42.1,28-67.3,28.8c-0.5,0-1,0-1.4,0"/>
		</g>
	</g>
	<g id="XMLID_22_">
		<path id="XMLID_30_" class="st3" d="M395.6,523.3c-1.2,0-2.3,0.1-3.5,0.1c-26.5,0-51.4-10.1-70.4-28.5
			c-20-19.3-30.9-45.3-30.9-73.1c0-28.7,13.3-54.2,32.3-74.1c21.5-22.6,40.3-31.7,60.8-39.9c22.3-9,47.3-13.2,78.7-13.4l58.4,0
			c0.1,0,0.2,0,0.3,0c23.3,0,42.3,18.8,42.5,42.2c0.2,23.5-18.7,42.6-42.2,42.8l-58.4,0c-41.1,0.2-68.8,16-83.2,31.5
			c-1.8,1.9-4.1,5.6-4.1,10.9c0,6.1,3.2,10.1,5.1,12c2.3,2.2,6.2,4.8,12,4.6"/>
	</g>
</g>
<g id="Capa_4">
	<path id="XMLID_182_" class="st6" d="M408.6,423.7c0,0,26.1-24.1,82.4-18.6l-5.7-21.8l-82,9.8l-1.3,15.6L408.6,423.7z"/>
	<path id="XMLID_181_" class="st6" d="M332.4,325.7c0,0-35-6.5-64.3-54.8l-10,14.7l57,59.7l13.3-8.3L332.4,325.7z"/>
</g>
</svg>
